# xmcd
#
# Track frame offsets: 
#        150
#        14033
#        24003
#        35562
#        48367
#        62287
#        73377
#        84194
#        96088
#        106018
#        118425
#        131684
#        144317
#        154101
#        165696
#        175635
#
# Disc length: 2473 seconds
#
# Revision: 0
# Processed by: cddbd v1.5.2PL0 Copyright (c) Steve Scherf et al.
# Submitted via: ExactAudioCopy v0.99pb4
#
DISCID=cc09a710
DTITLE=Solomon Burke - No Man Walks Alone 1955-1957
DYEAR=2008
DGENRE=Soul
TTITLE0=Christmas Presents from Heaven
TTITLE1=When I'm All Alone
TTITLE2=I'm in Love
TTITLE3=Why Do Me That Way?
TTITLE4=To Thee
TTITLE5=No Man Walks Alone
TTITLE6=Walking in a Dream
TTITLE7=You Can Run But You Can't Hide
TTITLE8=A Picture of You
TTITLE9=I Need You Tonight
TTITLE10=This Is It
TTITLE11=My Heart Is a Chapel
TTITLE12=For You and You Alone
TTITLE13=You Are My One Love
TTITLE14=They Always Say
TTITLE15=Don't Cry
EXTD=
EXTT0=
EXTT1=
EXTT2=
EXTT3=
EXTT4=
EXTT5=
EXTT6=
EXTT7=
EXTT8=
EXTT9=
EXTT10=
EXTT11=
EXTT12=
EXTT13=
EXTT14=
EXTT15=
PLAYORDER=
